<?xml version="1.0" encoding="UTF-8"?>
<svg version="1.1" xmlns="http://www.w3.org/2000/svg" width="16" height="16">
<path d="M0 0 C0 3.3 0 6.6 0 10 C-0.99 10.33 -1.98 10.66 -3 11 C-3.33 9.68 -3.66 8.36 -4 7 C-4.598125 7.66 -5.19625 8.32 -5.8125 9 C-8 11 -8 11 -11 11 C-10.42073787 7.46180427 -9.15676523 5.74971757 -6.625 3.25 C-6.01914063 2.63640625 -5.41328125 2.0228125 -4.7890625 1.390625 C-3 0 -3 0 0 0 Z " fill="#FF8500" transform="translate(16,3)"/>
<path d="M0 0 C0.66 0 1.32 0 2 0 C2.33 1.32 2.66 2.64 3 4 C3.598125 3.34 4.19625 2.68 4.8125 2 C7 0 7 0 10 0 C9.42073787 3.53819573 8.15676523 5.25028243 5.625 7.75 C5.01914063 8.36359375 4.41328125 8.9771875 3.7890625 9.609375 C2 11 2 11 -1 11 C-1.02688151 9.35425434 -1.04634123 7.70838587 -1.0625 6.0625 C-1.07410156 5.14597656 -1.08570312 4.22945313 -1.09765625 3.28515625 C-1 1 -1 1 0 0 Z " fill="#FF8500" transform="translate(1,2)"/>
</svg>
